<?xml version="1.0" encoding="UTF-8"?>
<svg version="1.1" xmlns="http://www.w3.org/2000/svg" width="512" height="512">
<path d="M0 0 C1.70440213 1.18437287 3.39393842 2.39064675 5.0625 3.625 C6.01189453 4.28242188 6.01189453 4.28242188 6.98046875 4.953125 C17.43562215 12.8961706 23.79921508 25.96646261 26.0625 38.625 C27.48112598 57.70698692 24.96531568 74.27325225 12.3125 89.375 C1.96474075 100.32914968 -11.88516647 106.64451024 -26.9375 107.625 C-40.06312313 107.4954282 -40.06312313 107.4954282 -45.36743164 105.88916016 C-50.31897529 104.39054023 -50.31897529 104.39054023 -55.11914062 105.74023438 C-57.29656177 107.53572464 -59.20268613 109.43422987 -61.125 111.5 C-61.78435547 112.15742187 -62.44371094 112.81484375 -63.12304688 113.4921875 C-65.10941081 115.49616452 -67.02905025 117.54685625 -68.9375 119.625 C-69.61248535 120.34719727 -70.2874707 121.06939453 -70.98291016 121.81347656 C-71.62405762 122.51698242 -72.26520508 123.22048828 -72.92578125 123.9453125 C-73.50497314 124.57969238 -74.08416504 125.21407227 -74.6809082 125.86767578 C-76.22832751 127.67165562 -76.22832751 127.67165562 -75.9375 130.625 C-74.44996977 132.54571224 -74.44996977 132.54571224 -72.4296875 134.4609375 C-71.31980469 135.56308594 -71.31980469 135.56308594 -70.1875 136.6875 C-69.011875 137.8321875 -69.011875 137.8321875 -67.8125 139 C-66.67167969 140.13308594 -66.67167969 140.13308594 -65.5078125 141.2890625 C-61.46530357 145.27581269 -57.36701511 149.07289683 -52.9375 152.625 C-54.25523204 155.63328582 -55.54151219 157.36496372 -58.125 159.375 C-60.76268597 161.52616164 -63.01062244 163.75477968 -65.20654297 166.3527832 C-68.78244708 170.49610772 -72.56122258 174.3773084 -76.4453125 178.23046875 C-77.13382294 178.91756424 -77.82233337 179.60465973 -78.53170776 180.31257629 C-80.70627327 182.48160616 -82.88430386 184.64711678 -85.0625 186.8125 C-86.53018149 188.27515629 -87.99763134 189.73804504 -89.46484375 191.20117188 C-92.74219997 194.46864211 -96.02161097 197.73402961 -99.30377197 200.99667358 C-100.79867392 202.48663292 -102.28623466 203.98357195 -103.77294922 205.48168945 C-105.9375 207.625 -105.9375 207.625 -107.8125 209.125 C-109.18338828 210.60265028 -109.18338828 210.60265028 -108.734375 212.78125 C-107.73671702 216.34151967 -106.05768897 219.39194901 -104.3125 222.625 C-93.21061252 244.18456971 -86.87765131 269.94044147 -86.734375 294.19921875 C-86.72731537 294.99685135 -86.72025574 295.79448395 -86.71298218 296.61628723 C-86.32909515 352.75618596 -103.34854218 404.5768338 -142.9375 445.625 C-144.8644807 447.43154441 -146.82812165 449.15825612 -148.8515625 450.85546875 C-152.27751394 453.7617534 -155.5419853 456.84804442 -158.8359375 459.90234375 C-160.9375 461.625 -160.9375 461.625 -162.9375 461.625 C-163.19966309 462.23150391 -163.46182617 462.83800781 -163.73193359 463.46289062 C-165.76537712 467.10974682 -169.13045531 468.87056342 -172.5625 471.125 C-173.35084229 471.64473389 -174.13918457 472.16446777 -174.95141602 472.69995117 C-208.44469332 494.21078946 -246.28382679 505.102393 -286 504.9375 C-286.90824524 504.93567719 -287.81649048 504.93385437 -288.7522583 504.93197632 C-302.00487848 504.88714771 -314.95925369 504.5609308 -327.9375 501.625 C-328.71528809 501.45339355 -329.49307617 501.28178711 -330.29443359 501.10498047 C-348.69619684 496.9239504 -366.37039925 490.66556696 -382.9375 481.625 C-383.54287598 481.29886719 -384.14825195 480.97273438 -384.77197266 480.63671875 C-408.96931581 467.52955256 -408.96931581 467.52955256 -410.9375 461.625 C-412.26411883 460.94507008 -413.59917163 460.28158161 -414.9375 459.625 C-416.84822275 458.01522318 -418.68054273 456.39399892 -420.5 454.6875 C-421.02086182 454.20385986 -421.54172363 453.72021973 -422.07836914 453.22192383 C-437.80860862 438.52247462 -437.80860862 438.52247462 -442.9375 431.625 C-442.9375 430.965 -442.9375 430.305 -442.9375 429.625 C-443.53208008 429.38668457 -444.12666016 429.14836914 -444.73925781 428.90283203 C-447.42355218 427.34245923 -448.4477552 425.79281094 -450.109375 423.1796875 C-450.68751953 422.27549072 -451.26566406 421.37129395 -451.86132812 420.43969727 C-452.7652832 418.98454712 -452.7652832 418.98454712 -453.6875 417.5 C-454.31076172 416.50605225 -454.93402344 415.51210449 -455.57617188 414.48803711 C-476.15168385 381.26158274 -486.40172655 344.63457538 -486.3125 305.625 C-486.31195618 304.72558685 -486.31141235 303.82617371 -486.31085205 302.89950562 C-486.27084947 288.46865331 -485.34052886 274.69810413 -481.9375 260.625 C-481.72319336 259.6978418 -481.50888672 258.77068359 -481.28808594 257.81542969 C-478.15490533 244.48458992 -473.71180109 232.02754811 -467.9375 219.625 C-467.56109375 218.80257812 -467.1846875 217.98015625 -466.796875 217.1328125 C-462.38650428 207.57700927 -457.54821111 198.56493305 -451.5 189.9375 C-450.99178711 189.21224121 -450.48357422 188.48698242 -449.95996094 187.73974609 C-446.33553367 182.75767789 -446.33553367 182.75767789 -442.9375 181.625 C-442.25996664 180.2971556 -441.59592367 178.96242308 -440.9375 177.625 C-439.3052257 175.71784617 -437.66027211 173.88342903 -435.9375 172.0625 C-434.93295328 170.99018297 -433.92906002 169.91725345 -432.92578125 168.84375 C-432.42127441 168.30492187 -431.91676758 167.76609375 -431.39697266 167.2109375 C-430.06233758 165.76065488 -428.76902864 164.2726198 -427.48046875 162.78125 C-398.42490735 129.24448261 -349.25775476 109.58670699 -305.9375 105.625 C-303.09349231 105.47192846 -300.25399515 105.41641254 -297.40625 105.38671875 C-296.62101456 105.37687958 -295.83577911 105.36704041 -295.02674866 105.35690308 C-277.00558399 105.17777574 -259.57345147 105.45907461 -241.9375 109.625 C-240.4537085 109.97111328 -240.4537085 109.97111328 -238.93994141 110.32421875 C-225.94938005 113.47344574 -214.10684622 117.9817586 -202.24560547 124.15649414 C-201.34471191 124.62047607 -200.44381836 125.08445801 -199.515625 125.5625 C-198.33081543 126.19478516 -198.33081543 126.19478516 -197.12207031 126.83984375 C-194.5352384 127.76957681 -193.46337491 127.63796069 -190.9375 126.625 C-187.387414 124.0216036 -184.55705574 121.26214768 -181.70751953 117.91674805 C-178.113127 113.77377125 -174.32224166 109.88108844 -170.4296875 106.01953125 C-169.74117706 105.33243576 -169.05266663 104.64534027 -168.34329224 103.93742371 C-166.16872673 101.76839384 -163.99069614 99.60288322 -161.8125 97.4375 C-160.34481851 95.97484371 -158.87736866 94.51195496 -157.41015625 93.04882812 C-154.71871351 90.365504 -152.02595991 87.68351136 -149.33154297 85.00317383 C-146.52901359 82.21494752 -143.7315078 79.42176929 -140.9375 76.625 C-139.27083333 74.95833333 -137.60416667 73.29166667 -135.9375 71.625 C-131.94768135 73.18381287 -129.56587159 75.97913173 -126.8125 79.125 C-121.71014791 84.83156655 -116.4049387 90.26430089 -110.9375 95.625 C-108.59287118 93.63716252 -106.26075809 91.63766209 -103.9375 89.625 C-103.14214844 88.93664062 -102.34679687 88.24828125 -101.52734375 87.5390625 C-98.95716047 85.27475884 -96.44155678 82.96211966 -93.9375 80.625 C-93.11636719 79.89023438 -92.29523438 79.15546875 -91.44921875 78.3984375 C-87.33062605 74.56836314 -87.33062605 74.56836314 -85.85546875 69.3984375 C-86.35592119 67.01526822 -86.35592119 67.01526822 -87.1328125 64.53515625 C-91.40094648 49.09942899 -88.4787608 32.66975574 -80.9453125 18.81640625 C-72.22292197 4.95221741 -59.5804079 -2.43332253 -44.05395508 -6.91918945 C-29.42980848 -10.06872016 -12.69125937 -7.73480807 0 0 Z " fill="#30363C" transform="translate(485.9375,7.375)"/>
<path d="M0 0 C1.70440213 1.18437287 3.39393842 2.39064675 5.0625 3.625 C5.69542969 4.06328125 6.32835937 4.5015625 6.98046875 4.953125 C17.43562215 12.8961706 23.79921508 25.96646261 26.0625 38.625 C27.48112598 57.70698692 24.96531568 74.27325225 12.3125 89.375 C1.96474075 100.32914968 -11.88516647 106.64451024 -26.9375 107.625 C-40.06312313 107.4954282 -40.06312313 107.4954282 -45.36743164 105.88916016 C-50.31897529 104.39054023 -50.31897529 104.39054023 -55.11914062 105.74023438 C-57.29656177 107.53572464 -59.20268613 109.43422987 -61.125 111.5 C-62.1140332 112.48613281 -62.1140332 112.48613281 -63.12304688 113.4921875 C-67.07555447 117.47974196 -70.70582801 121.66366026 -74.19262695 126.06298828 C-76.58181758 128.2017936 -77.69894497 128.74586112 -80.9375 128.625 C-83.54797346 126.93211438 -85.63324479 124.7692466 -87.8046875 122.5546875 C-88.44366974 121.92144562 -89.08265198 121.28820374 -89.74099731 120.63577271 C-91.08797792 119.29287517 -92.42741032 117.94237018 -93.75976562 116.58496094 C-95.80509397 114.5075223 -97.88041487 112.46399707 -99.9609375 110.421875 C-101.264949 109.11389866 -102.56709804 107.80406231 -103.8671875 106.4921875 C-104.49100311 105.88051727 -105.11481873 105.26884705 -105.75753784 104.63864136 C-109.90941813 100.34766638 -109.90941813 100.34766638 -110.04223633 96.9296875 C-108.78252815 94.3016996 -107.5007806 92.82713639 -105.33203125 90.8828125 C-104.59533203 90.20863281 -103.85863281 89.53445312 -103.09960938 88.83984375 C-101.93655273 87.80537109 -101.93655273 87.80537109 -100.75 86.75 C-92.51801838 79.90205495 -92.51801838 79.90205495 -85.9375 71.625 C-86.03349731 69.11279923 -86.54209665 67.03291174 -87.203125 64.60546875 C-91.07362442 48.89700566 -88.61257628 32.91583065 -80.9453125 18.81640625 C-72.22292197 4.95221741 -59.5804079 -2.43332253 -44.05395508 -6.91918945 C-29.42980848 -10.06872016 -12.69125937 -7.73480807 0 0 Z " fill="#F18F26" transform="translate(485.9375,7.375)"/>
<path d="M0 0 C7.13682186 4.10559107 11.6942182 8.8400216 13.9609375 16.85546875 C15.75603143 26.58134653 14.80835072 34.11580398 9.4375 42.4375 C8.86 43.365625 8.2825 44.29375 7.6875 45.25 C0.63713453 52.10452199 -7.01721912 53.76389904 -16.53125 53.6484375 C-24.00068124 53.12865749 -30.26706483 49.68767504 -35.5625 44.4375 C-41.89634545 35.40706688 -42.73664494 26.48236962 -40.9375 15.6875 C-37.54634553 7.67204399 -32.08003497 2.11094478 -24.2890625 -1.6640625 C-16.3681088 -4.27411888 -7.47078006 -3.50192815 0 0 Z " fill="#FCCA57" transform="translate(468.5625,31.5625)"/>
<path d="M0 0 C2.91693669 2.72289155 4.935592 5.33361841 6.875 8.8125 C13.09670477 19.32026805 21.84123929 26.85608348 33 32 C29.36627033 36.45131884 25.68065234 40.20644949 21.28125 43.88671875 C19.44924369 45.58383418 17.84820493 47.26409129 16.21875 49.14453125 C15.73752686 49.69665283 15.25630371 50.24877441 14.76049805 50.81762695 C13.80741044 51.92498266 12.86823343 53.04449019 11.94458008 54.17651367 C10.61328125 55.71875 10.61328125 55.71875 8 58 C3.49905471 58.04106434 1.19670966 55.70033048 -1.86117554 52.74591064 C-2.45097198 52.15429138 -3.04076843 51.56267212 -3.6484375 50.953125 C-4.57361679 50.04080109 -4.57361679 50.04080109 -5.51748657 49.11004639 C-6.8150815 47.82391603 -8.10749578 46.53254049 -9.39501953 45.23632812 C-11.37181704 43.25319317 -13.37380813 41.29821681 -15.37890625 39.34375 C-16.63703596 38.09016473 -17.8936021 36.83500785 -19.1484375 35.578125 C-19.75037933 34.99460266 -20.35232117 34.41108032 -20.97250366 33.80987549 C-24.97630348 29.71447604 -24.97630348 29.71447604 -25.08886719 26.32055664 C-23.85112059 23.68271327 -22.59832177 22.23503323 -20.4296875 20.29296875 C-19.6975 19.62330078 -18.9653125 18.95363281 -18.2109375 18.26367188 C-17.44007813 17.57853516 -16.66921875 16.89339844 -15.875 16.1875 C-10.1933318 11.06910063 -4.90200646 5.87867775 0 0 Z " fill="#CAD4DA" transform="translate(401,78)"/>
</svg>
